<mxfile host="app.diagrams.net" modified="2024-05-13T18:16:05.882Z" agent="Mozilla/5.0 (Windows NT 10.0; Win64; x64) AppleWebKit/537.36 (KHTML, like Gecko) Chrome/124.0.0.0 Safari/537.36" etag="OnQ_44Rj6OuCfuA49RcI" version="24.4.0" type="google">
  <diagram name="Page-1" id="7Albkof5WGC6Pvgjltei">
    <mxGraphModel grid="1" page="1" gridSize="10" guides="1" tooltips="1" connect="1" arrows="1" fold="1" pageScale="1" pageWidth="850" pageHeight="1100" math="0" shadow="0">
      <root>
        <mxCell id="0" />
        <mxCell id="1" parent="0" />
        <mxCell id="xQmTrEk7y5srBk64jgJA-1" style="edgeStyle=orthogonalEdgeStyle;rounded=0;orthogonalLoop=1;jettySize=auto;html=1;" edge="1" parent="1">
          <mxGeometry relative="1" as="geometry">
            <mxPoint x="65.02999999999989" y="-2810" as="targetPoint" />
            <mxPoint x="134.9955172413793" y="-2810" as="sourcePoint" />
            <Array as="points">
              <mxPoint x="135.03" y="-2760" />
              <mxPoint x="65.03" y="-2760" />
            </Array>
          </mxGeometry>
        </mxCell>
        <mxCell id="xQmTrEk7y5srBk64jgJA-2" value="Pelicula" style="swimlane;fontStyle=0;align=center;verticalAlign=top;childLayout=stackLayout;horizontal=1;startSize=30;horizontalStack=0;resizeParent=1;resizeLast=0;collapsible=1;marginBottom=0;rounded=0;shadow=0;strokeWidth=1;fillColor=#fff2cc;strokeColor=#d6b656;" vertex="1" parent="1">
          <mxGeometry y="-2990" width="200" height="180" as="geometry">
            <mxRectangle x="110" y="-20" width="160" height="26" as="alternateBounds" />
          </mxGeometry>
        </mxCell>
        <mxCell id="xQmTrEk7y5srBk64jgJA-3" value="- titulo: String" style="text;align=left;verticalAlign=top;spacingLeft=4;spacingRight=4;overflow=hidden;rotatable=0;points=[[0,0.5],[1,0.5]];portConstraint=eastwest;rounded=0;shadow=0;html=0;" vertex="1" parent="xQmTrEk7y5srBk64jgJA-2">
          <mxGeometry y="30" width="200" height="22" as="geometry" />
        </mxCell>
        <mxCell id="xQmTrEk7y5srBk64jgJA-4" value="- anio: Year" style="text;align=left;verticalAlign=top;spacingLeft=4;spacingRight=4;overflow=hidden;rotatable=0;points=[[0,0.5],[1,0.5]];portConstraint=eastwest;rounded=0;shadow=0;html=0;" vertex="1" parent="xQmTrEk7y5srBk64jgJA-2">
          <mxGeometry y="52" width="200" height="22" as="geometry" />
        </mxCell>
        <mxCell id="xQmTrEk7y5srBk64jgJA-5" value="- puntaje: double" style="text;align=left;verticalAlign=top;spacingLeft=4;spacingRight=4;overflow=hidden;rotatable=0;points=[[0,0.5],[1,0.5]];portConstraint=eastwest;rounded=0;shadow=0;html=0;" vertex="1" parent="xQmTrEk7y5srBk64jgJA-2">
          <mxGeometry y="74" width="200" height="22" as="geometry" />
        </mxCell>
        <mxCell id="xQmTrEk7y5srBk64jgJA-6" value="- similares: Pelicula[*]" style="text;align=left;verticalAlign=top;spacingLeft=4;spacingRight=4;overflow=hidden;rotatable=0;points=[[0,0.5],[1,0.5]];portConstraint=eastwest;rounded=0;shadow=0;html=0;" vertex="1" parent="xQmTrEk7y5srBk64jgJA-2">
          <mxGeometry y="96" width="200" height="22" as="geometry" />
        </mxCell>
        <mxCell id="xQmTrEk7y5srBk64jgJA-7" value="" style="line;html=1;strokeWidth=1;align=left;verticalAlign=middle;spacingTop=-1;spacingLeft=3;spacingRight=3;rotatable=0;labelPosition=right;points=[];portConstraint=eastwest;" vertex="1" parent="xQmTrEk7y5srBk64jgJA-2">
          <mxGeometry y="118" width="200" height="8" as="geometry" />
        </mxCell>
        <mxCell id="xQmTrEk7y5srBk64jgJA-8" value="+ agregarSimilar(pelicula: Pelicula)" style="text;align=left;verticalAlign=top;spacingLeft=4;spacingRight=4;overflow=hidden;rotatable=0;points=[[0,0.5],[1,0.5]];portConstraint=eastwest;rounded=0;shadow=0;html=0;" vertex="1" parent="xQmTrEk7y5srBk64jgJA-2">
          <mxGeometry y="126" width="200" height="24" as="geometry" />
        </mxCell>
        <mxCell id="xQmTrEk7y5srBk64jgJA-9" value="+ toString(): String" style="text;align=left;verticalAlign=top;spacingLeft=4;spacingRight=4;overflow=hidden;rotatable=0;points=[[0,0.5],[1,0.5]];portConstraint=eastwest;rounded=0;shadow=0;html=0;" vertex="1" parent="xQmTrEk7y5srBk64jgJA-2">
          <mxGeometry y="150" width="200" height="22" as="geometry" />
        </mxCell>
        <mxCell id="xQmTrEk7y5srBk64jgJA-10" style="edgeStyle=orthogonalEdgeStyle;rounded=0;orthogonalLoop=1;jettySize=auto;html=1;entryX=0.5;entryY=0;entryDx=0;entryDy=0;" edge="1" parent="1" source="xQmTrEk7y5srBk64jgJA-11" target="xQmTrEk7y5srBk64jgJA-20">
          <mxGeometry relative="1" as="geometry" />
        </mxCell>
        <mxCell id="xQmTrEk7y5srBk64jgJA-11" value="Decodificador" style="swimlane;fontStyle=0;align=center;verticalAlign=top;childLayout=stackLayout;horizontal=1;startSize=30;horizontalStack=0;resizeParent=1;resizeLast=0;collapsible=1;marginBottom=0;rounded=0;shadow=0;strokeWidth=1;fillColor=#fff2cc;strokeColor=#d6b656;" vertex="1" parent="1">
          <mxGeometry x="310" y="-3010" width="260" height="210" as="geometry">
            <mxRectangle x="110" y="-20" width="160" height="26" as="alternateBounds" />
          </mxGeometry>
        </mxCell>
        <mxCell id="xQmTrEk7y5srBk64jgJA-12" value="- criterioSugerencia: Sugerencia" style="text;align=left;verticalAlign=top;spacingLeft=4;spacingRight=4;overflow=hidden;rotatable=0;points=[[0,0.5],[1,0.5]];portConstraint=eastwest;rounded=0;shadow=0;html=0;" vertex="1" parent="xQmTrEk7y5srBk64jgJA-11">
          <mxGeometry y="30" width="260" height="22" as="geometry" />
        </mxCell>
        <mxCell id="xQmTrEk7y5srBk64jgJA-13" value="" style="line;html=1;strokeWidth=1;align=left;verticalAlign=middle;spacingTop=-1;spacingLeft=3;spacingRight=3;rotatable=0;labelPosition=right;points=[];portConstraint=eastwest;" vertex="1" parent="xQmTrEk7y5srBk64jgJA-11">
          <mxGeometry y="52" width="260" height="8" as="geometry" />
        </mxCell>
        <mxCell id="xQmTrEk7y5srBk64jgJA-14" value="+ agregarPelicula(pelicula: Pelicula)" style="text;align=left;verticalAlign=top;spacingLeft=4;spacingRight=4;overflow=hidden;rotatable=0;points=[[0,0.5],[1,0.5]];portConstraint=eastwest;rounded=0;shadow=0;html=0;" vertex="1" parent="xQmTrEk7y5srBk64jgJA-11">
          <mxGeometry y="60" width="260" height="24" as="geometry" />
        </mxCell>
        <mxCell id="xQmTrEk7y5srBk64jgJA-15" value="+ agregarReproducida(pelicula: Pelicula)" style="text;align=left;verticalAlign=top;spacingLeft=4;spacingRight=4;overflow=hidden;rotatable=0;points=[[0,0.5],[1,0.5]];portConstraint=eastwest;rounded=0;shadow=0;html=0;" vertex="1" parent="xQmTrEk7y5srBk64jgJA-11">
          <mxGeometry y="84" width="260" height="22" as="geometry" />
        </mxCell>
        <mxCell id="xQmTrEk7y5srBk64jgJA-16" value="+ obtenerSugerencias(): Pelicula[*]" style="text;align=left;verticalAlign=top;spacingLeft=4;spacingRight=4;overflow=hidden;rotatable=0;points=[[0,0.5],[1,0.5]];portConstraint=eastwest;rounded=0;shadow=0;html=0;" vertex="1" parent="xQmTrEk7y5srBk64jgJA-11">
          <mxGeometry y="106" width="260" height="22" as="geometry" />
        </mxCell>
        <mxCell id="xQmTrEk7y5srBk64jgJA-17" value="+ fueReproducida(pelicula: Pelicula): boolean" style="text;align=left;verticalAlign=top;spacingLeft=4;spacingRight=4;overflow=hidden;rotatable=0;points=[[0,0.5],[1,0.5]];portConstraint=eastwest;rounded=0;shadow=0;html=0;" vertex="1" parent="xQmTrEk7y5srBk64jgJA-11">
          <mxGeometry y="128" width="260" height="22" as="geometry" />
        </mxCell>
        <mxCell id="xQmTrEk7y5srBk64jgJA-18" value="+ mostrarPeliculas(): String" style="text;align=left;verticalAlign=top;spacingLeft=4;spacingRight=4;overflow=hidden;rotatable=0;points=[[0,0.5],[1,0.5]];portConstraint=eastwest;rounded=0;shadow=0;html=0;" vertex="1" parent="xQmTrEk7y5srBk64jgJA-11">
          <mxGeometry y="150" width="260" height="22" as="geometry" />
        </mxCell>
        <mxCell id="xQmTrEk7y5srBk64jgJA-19" value="+ mostrarReproducidas(): String" style="text;align=left;verticalAlign=top;spacingLeft=4;spacingRight=4;overflow=hidden;rotatable=0;points=[[0,0.5],[1,0.5]];portConstraint=eastwest;rounded=0;shadow=0;html=0;" vertex="1" parent="xQmTrEk7y5srBk64jgJA-11">
          <mxGeometry y="172" width="260" height="22" as="geometry" />
        </mxCell>
        <mxCell id="xQmTrEk7y5srBk64jgJA-20" value="&lt;&lt;abstract&gt;&gt;&#xa;SugerenciaÂ " style="swimlane;fontStyle=0;align=center;verticalAlign=top;childLayout=stackLayout;horizontal=1;startSize=40;horizontalStack=0;resizeParent=1;resizeLast=0;collapsible=1;marginBottom=0;rounded=0;shadow=0;strokeWidth=1;fillColor=#fff2cc;strokeColor=#d6b656;" vertex="1" parent="1">
          <mxGeometry x="240" y="-2740" width="400" height="120" as="geometry">
            <mxRectangle x="110" y="-20" width="160" height="26" as="alternateBounds" />
          </mxGeometry>
        </mxCell>
        <mxCell id="xQmTrEk7y5srBk64jgJA-21" value="" style="line;html=1;strokeWidth=1;align=left;verticalAlign=middle;spacingTop=-1;spacingLeft=3;spacingRight=3;rotatable=0;labelPosition=right;points=[];portConstraint=eastwest;" vertex="1" parent="xQmTrEk7y5srBk64jgJA-20">
          <mxGeometry y="40" width="400" height="8" as="geometry" />
        </mxCell>
        <mxCell id="xQmTrEk7y5srBk64jgJA-22" value="+ sugerirPeliculas(decodificador: Decodificador): Pelicula[*]" style="text;align=left;verticalAlign=top;spacingLeft=4;spacingRight=4;overflow=hidden;rotatable=0;points=[[0,0.5],[1,0.5]];portConstraint=eastwest;rounded=0;shadow=0;html=0;" vertex="1" parent="xQmTrEk7y5srBk64jgJA-20">
          <mxGeometry y="48" width="400" height="24" as="geometry" />
        </mxCell>
        <mxCell id="xQmTrEk7y5srBk64jgJA-23" value="+ obtenerSugerencias(decodificador: Decodificador): Pelicula[*]" style="text;align=left;verticalAlign=top;spacingLeft=4;spacingRight=4;overflow=hidden;rotatable=0;points=[[0,0.5],[1,0.5]];portConstraint=eastwest;rounded=0;shadow=0;html=0;" vertex="1" parent="xQmTrEk7y5srBk64jgJA-20">
          <mxGeometry y="72" width="400" height="22" as="geometry" />
        </mxCell>
        <mxCell id="xQmTrEk7y5srBk64jgJA-24" style="edgeStyle=orthogonalEdgeStyle;rounded=0;orthogonalLoop=1;jettySize=auto;html=1;" edge="1" parent="1" source="xQmTrEk7y5srBk64jgJA-25" target="xQmTrEk7y5srBk64jgJA-20">
          <mxGeometry relative="1" as="geometry">
            <Array as="points">
              <mxPoint x="700" y="-2560" />
              <mxPoint x="700" y="-2680" />
            </Array>
          </mxGeometry>
        </mxCell>
        <mxCell id="xQmTrEk7y5srBk64jgJA-25" value="SugerenciaNovedadÂ " style="swimlane;fontStyle=0;align=center;verticalAlign=top;childLayout=stackLayout;horizontal=1;startSize=30;horizontalStack=0;resizeParent=1;resizeLast=0;collapsible=1;marginBottom=0;rounded=0;shadow=0;strokeWidth=1;fillColor=#fff2cc;strokeColor=#d6b656;" vertex="1" parent="1">
          <mxGeometry x="760" y="-2600" width="360" height="80" as="geometry">
            <mxRectangle x="110" y="-20" width="160" height="26" as="alternateBounds" />
          </mxGeometry>
        </mxCell>
        <mxCell id="xQmTrEk7y5srBk64jgJA-26" value="" style="line;html=1;strokeWidth=1;align=left;verticalAlign=middle;spacingTop=-1;spacingLeft=3;spacingRight=3;rotatable=0;labelPosition=right;points=[];portConstraint=eastwest;" vertex="1" parent="xQmTrEk7y5srBk64jgJA-25">
          <mxGeometry y="30" width="360" height="8" as="geometry" />
        </mxCell>
        <mxCell id="xQmTrEk7y5srBk64jgJA-27" value="+ sugerirPeliculas(decodificador: Decodificador): Pelicula[*]" style="text;align=left;verticalAlign=top;spacingLeft=4;spacingRight=4;overflow=hidden;rotatable=0;points=[[0,0.5],[1,0.5]];portConstraint=eastwest;rounded=0;shadow=0;html=0;" vertex="1" parent="xQmTrEk7y5srBk64jgJA-25">
          <mxGeometry y="38" width="360" height="24" as="geometry" />
        </mxCell>
        <mxCell id="xQmTrEk7y5srBk64jgJA-28" style="edgeStyle=orthogonalEdgeStyle;rounded=0;orthogonalLoop=1;jettySize=auto;html=1;" edge="1" parent="1" source="xQmTrEk7y5srBk64jgJA-29" target="xQmTrEk7y5srBk64jgJA-20">
          <mxGeometry relative="1" as="geometry" />
        </mxCell>
        <mxCell id="xQmTrEk7y5srBk64jgJA-29" value="SugerenciaPuntaje" style="swimlane;fontStyle=0;align=center;verticalAlign=top;childLayout=stackLayout;horizontal=1;startSize=30;horizontalStack=0;resizeParent=1;resizeLast=0;collapsible=1;marginBottom=0;rounded=0;shadow=0;strokeWidth=1;fillColor=#fff2cc;strokeColor=#d6b656;" vertex="1" parent="1">
          <mxGeometry x="760" y="-2720" width="360" height="80" as="geometry">
            <mxRectangle x="110" y="-20" width="160" height="26" as="alternateBounds" />
          </mxGeometry>
        </mxCell>
        <mxCell id="xQmTrEk7y5srBk64jgJA-30" value="" style="line;html=1;strokeWidth=1;align=left;verticalAlign=middle;spacingTop=-1;spacingLeft=3;spacingRight=3;rotatable=0;labelPosition=right;points=[];portConstraint=eastwest;" vertex="1" parent="xQmTrEk7y5srBk64jgJA-29">
          <mxGeometry y="30" width="360" height="8" as="geometry" />
        </mxCell>
        <mxCell id="xQmTrEk7y5srBk64jgJA-31" value="+ sugerirPeliculas(decodificador: Decodificador): Pelicula[*]" style="text;align=left;verticalAlign=top;spacingLeft=4;spacingRight=4;overflow=hidden;rotatable=0;points=[[0,0.5],[1,0.5]];portConstraint=eastwest;rounded=0;shadow=0;html=0;" vertex="1" parent="xQmTrEk7y5srBk64jgJA-29">
          <mxGeometry y="38" width="360" height="24" as="geometry" />
        </mxCell>
        <mxCell id="xQmTrEk7y5srBk64jgJA-32" style="edgeStyle=orthogonalEdgeStyle;rounded=0;orthogonalLoop=1;jettySize=auto;html=1;" edge="1" parent="1" source="xQmTrEk7y5srBk64jgJA-33" target="xQmTrEk7y5srBk64jgJA-20">
          <mxGeometry relative="1" as="geometry">
            <Array as="points">
              <mxPoint x="700" y="-2800" />
              <mxPoint x="700" y="-2680" />
            </Array>
          </mxGeometry>
        </mxCell>
        <mxCell id="xQmTrEk7y5srBk64jgJA-33" value="SugerenciaSimilaridad" style="swimlane;fontStyle=0;align=center;verticalAlign=top;childLayout=stackLayout;horizontal=1;startSize=30;horizontalStack=0;resizeParent=1;resizeLast=0;collapsible=1;marginBottom=0;rounded=0;shadow=0;strokeWidth=1;fillColor=#fff2cc;strokeColor=#d6b656;" vertex="1" parent="1">
          <mxGeometry x="760" y="-2840" width="360" height="80" as="geometry">
            <mxRectangle x="110" y="-20" width="160" height="26" as="alternateBounds" />
          </mxGeometry>
        </mxCell>
        <mxCell id="xQmTrEk7y5srBk64jgJA-34" value="" style="line;html=1;strokeWidth=1;align=left;verticalAlign=middle;spacingTop=-1;spacingLeft=3;spacingRight=3;rotatable=0;labelPosition=right;points=[];portConstraint=eastwest;" vertex="1" parent="xQmTrEk7y5srBk64jgJA-33">
          <mxGeometry y="30" width="360" height="8" as="geometry" />
        </mxCell>
        <mxCell id="xQmTrEk7y5srBk64jgJA-35" value="+ sugerirPeliculas(decodificador: Decodificador): Pelicula[*]" style="text;align=left;verticalAlign=top;spacingLeft=4;spacingRight=4;overflow=hidden;rotatable=0;points=[[0,0.5],[1,0.5]];portConstraint=eastwest;rounded=0;shadow=0;html=0;" vertex="1" parent="xQmTrEk7y5srBk64jgJA-33">
          <mxGeometry y="38" width="360" height="24" as="geometry" />
        </mxCell>
        <mxCell id="xQmTrEk7y5srBk64jgJA-36" value="criterio" style="text;html=1;align=center;verticalAlign=middle;whiteSpace=wrap;rounded=0;fontSize=14;" vertex="1" parent="1">
          <mxGeometry x="431.25" y="-2782.5" width="68.75" height="15" as="geometry" />
        </mxCell>
        <mxCell id="xQmTrEk7y5srBk64jgJA-37" value="&lt;span style=&quot;color: rgb(0, 0, 0); font-family: Helvetica; font-size: 14px; font-style: normal; font-variant-ligatures: normal; font-variant-caps: normal; font-weight: 400; letter-spacing: normal; orphans: 2; text-align: center; text-indent: 0px; text-transform: none; widows: 2; word-spacing: 0px; -webkit-text-stroke-width: 0px; white-space: normal; background-color: rgb(251, 251, 251); text-decoration-thickness: initial; text-decoration-style: initial; text-decoration-color: initial; display: inline !important; float: none;&quot;&gt;1&lt;/span&gt;" style="text;whiteSpace=wrap;html=1;" vertex="1" parent="1">
          <mxGeometry x="420" y="-2790" width="16.5" height="30" as="geometry" />
        </mxCell>
        <mxCell id="xQmTrEk7y5srBk64jgJA-38" value="&lt;font style=&quot;font-size: 16px;&quot;&gt;&lt;b style=&quot;font-size: 16px;&quot;&gt;&lt;i style=&quot;font-size: 16px;&quot;&gt;Concrete Strategy&lt;/i&gt;&lt;/b&gt;&lt;/font&gt;" style="text;html=1;align=center;verticalAlign=middle;whiteSpace=wrap;rounded=0;fontSize=16;" vertex="1" parent="1">
          <mxGeometry x="760" y="-2860" width="160" height="20" as="geometry" />
        </mxCell>
        <mxCell id="xQmTrEk7y5srBk64jgJA-39" value="&lt;font style=&quot;font-size: 16px;&quot;&gt;&lt;b style=&quot;font-size: 16px;&quot;&gt;&lt;i style=&quot;font-size: 16px;&quot;&gt;Concrete Strategy&lt;/i&gt;&lt;/b&gt;&lt;/font&gt;" style="text;html=1;align=center;verticalAlign=middle;whiteSpace=wrap;rounded=0;fontSize=16;" vertex="1" parent="1">
          <mxGeometry x="760" y="-2740" width="160" height="20" as="geometry" />
        </mxCell>
        <mxCell id="xQmTrEk7y5srBk64jgJA-40" value="&lt;font style=&quot;font-size: 16px;&quot;&gt;&lt;b style=&quot;font-size: 16px;&quot;&gt;&lt;i style=&quot;font-size: 16px;&quot;&gt;Concrete Strategy&lt;/i&gt;&lt;/b&gt;&lt;/font&gt;" style="text;html=1;align=center;verticalAlign=middle;whiteSpace=wrap;rounded=0;fontSize=16;" vertex="1" parent="1">
          <mxGeometry x="760" y="-2620" width="170" height="20" as="geometry" />
        </mxCell>
        <mxCell id="xQmTrEk7y5srBk64jgJA-41" value="&lt;font style=&quot;font-size: 16px;&quot;&gt;&lt;b style=&quot;font-size: 16px;&quot;&gt;&lt;i style=&quot;font-size: 16px;&quot;&gt;Strategy&lt;/i&gt;&lt;/b&gt;&lt;/font&gt;" style="text;html=1;align=center;verticalAlign=middle;whiteSpace=wrap;rounded=0;fontSize=16;" vertex="1" parent="1">
          <mxGeometry x="240" y="-2760" width="70" height="20" as="geometry" />
        </mxCell>
        <mxCell id="xQmTrEk7y5srBk64jgJA-42" value="&lt;font style=&quot;font-size: 16px;&quot;&gt;&lt;b style=&quot;font-size: 16px;&quot;&gt;&lt;i style=&quot;font-size: 16px;&quot;&gt;Context&lt;/i&gt;&lt;/b&gt;&lt;/font&gt;" style="text;html=1;align=center;verticalAlign=middle;whiteSpace=wrap;rounded=0;fontSize=16;" vertex="1" parent="1">
          <mxGeometry x="310" y="-3030" width="70" height="20" as="geometry" />
        </mxCell>
        <mxCell id="xQmTrEk7y5srBk64jgJA-43" value="reproducidas" style="text;html=1;align=center;verticalAlign=middle;whiteSpace=wrap;rounded=0;fontSize=14;" vertex="1" parent="1">
          <mxGeometry x="210" y="-2880" width="89.38" height="15" as="geometry" />
        </mxCell>
        <mxCell id="xQmTrEk7y5srBk64jgJA-44" style="edgeStyle=orthogonalEdgeStyle;rounded=0;orthogonalLoop=1;jettySize=auto;html=1;" edge="1" parent="1">
          <mxGeometry relative="1" as="geometry">
            <mxPoint x="309.69" y="-2860" as="sourcePoint" />
            <mxPoint x="199.69" y="-2860" as="targetPoint" />
            <Array as="points">
              <mxPoint x="289.69" y="-2860" />
              <mxPoint x="289.69" y="-2860" />
            </Array>
          </mxGeometry>
        </mxCell>
        <mxCell id="xQmTrEk7y5srBk64jgJA-45" style="edgeStyle=orthogonalEdgeStyle;rounded=0;orthogonalLoop=1;jettySize=auto;html=1;" edge="1" parent="1">
          <mxGeometry relative="1" as="geometry">
            <mxPoint x="309.69" y="-2940" as="sourcePoint" />
            <mxPoint x="199.69" y="-2940" as="targetPoint" />
            <Array as="points">
              <mxPoint x="289.69" y="-2940" />
              <mxPoint x="289.69" y="-2940" />
            </Array>
          </mxGeometry>
        </mxCell>
        <mxCell id="xQmTrEk7y5srBk64jgJA-46" value="peliculas" style="text;html=1;align=center;verticalAlign=middle;whiteSpace=wrap;rounded=0;fontSize=14;" vertex="1" parent="1">
          <mxGeometry x="210" y="-2960" width="89.38" height="15" as="geometry" />
        </mxCell>
        <mxCell id="xQmTrEk7y5srBk64jgJA-47" value="&lt;font style=&quot;font-size: 20px;&quot;&gt;*&lt;/font&gt;" style="text;html=1;align=center;verticalAlign=middle;whiteSpace=wrap;rounded=0;fontSize=14;" vertex="1" parent="1">
          <mxGeometry x="210" y="-2855" width="89.38" height="15" as="geometry" />
        </mxCell>
        <mxCell id="xQmTrEk7y5srBk64jgJA-48" value="&lt;font style=&quot;font-size: 20px;&quot;&gt;*&lt;/font&gt;" style="text;html=1;align=center;verticalAlign=middle;whiteSpace=wrap;rounded=0;fontSize=14;" vertex="1" parent="1">
          <mxGeometry x="210" y="-2940" width="89.38" height="25" as="geometry" />
        </mxCell>
        <mxCell id="xQmTrEk7y5srBk64jgJA-49" value="similares" style="text;html=1;align=center;verticalAlign=middle;whiteSpace=wrap;rounded=0;fontSize=14;" vertex="1" parent="1">
          <mxGeometry x="62.66" y="-2777.5" width="74.69" height="10" as="geometry" />
        </mxCell>
        <mxCell id="xQmTrEk7y5srBk64jgJA-50" value="&lt;font style=&quot;font-size: 20px;&quot;&gt;*&lt;/font&gt;" style="text;html=1;align=center;verticalAlign=middle;whiteSpace=wrap;rounded=0;fontSize=14;" vertex="1" parent="1">
          <mxGeometry x="55.31" y="-2755" width="89.38" height="15" as="geometry" />
        </mxCell>
        <mxCell id="xQmTrEk7y5srBk64jgJA-51" value="&lt;span style=&quot;font-size: 20px;&quot;&gt;&lt;b&gt;&lt;i&gt;ejercicio_13_DecodificadorDePeliculas&lt;/i&gt;&lt;/b&gt;&lt;/span&gt;" style="text;html=1;align=center;verticalAlign=middle;resizable=0;points=[];autosize=1;strokeColor=none;fillColor=none;" vertex="1" parent="1">
          <mxGeometry x="800" y="-2480" width="390" height="40" as="geometry" />
        </mxCell>
        <mxCell id="xQmTrEk7y5srBk64jgJA-52" value="&lt;b style=&quot;&quot;&gt;&lt;i&gt;&lt;font style=&quot;font-size: 20px;&quot;&gt;Patron Strategy&lt;/font&gt;&lt;/i&gt;&lt;/b&gt;" style="text;html=1;align=center;verticalAlign=middle;resizable=0;points=[];autosize=1;strokeColor=none;fillColor=none;" vertex="1" parent="1">
          <mxGeometry x="-80" y="-3080" width="170" height="40" as="geometry" />
        </mxCell>
        <mxCell id="xQmTrEk7y5srBk64jgJA-53" value="&lt;&lt;interface&gt;&gt;&#xa;DatabaseAccess" style="swimlane;fontStyle=0;align=center;verticalAlign=top;childLayout=stackLayout;horizontal=1;startSize=40;horizontalStack=0;resizeParent=1;resizeLast=0;collapsible=1;marginBottom=0;rounded=0;shadow=0;strokeWidth=1;fillColor=#fff2cc;strokeColor=#d6b656;" vertex="1" parent="1">
          <mxGeometry x="360" y="-3440" width="280" height="110" as="geometry">
            <mxRectangle x="110" y="-20" width="160" height="26" as="alternateBounds" />
          </mxGeometry>
        </mxCell>
        <mxCell id="xQmTrEk7y5srBk64jgJA-58" value="" style="line;html=1;strokeWidth=1;align=left;verticalAlign=middle;spacingTop=-1;spacingLeft=3;spacingRight=3;rotatable=0;labelPosition=right;points=[];portConstraint=eastwest;" vertex="1" parent="xQmTrEk7y5srBk64jgJA-53">
          <mxGeometry y="40" width="280" height="8" as="geometry" />
        </mxCell>
        <mxCell id="xQmTrEk7y5srBk64jgJA-59" value="+ insertNewRow(rowData: List&lt;String&gt;): int" style="text;align=left;verticalAlign=top;spacingLeft=4;spacingRight=4;overflow=hidden;rotatable=0;points=[[0,0.5],[1,0.5]];portConstraint=eastwest;rounded=0;shadow=0;html=0;" vertex="1" parent="xQmTrEk7y5srBk64jgJA-53">
          <mxGeometry y="48" width="280" height="24" as="geometry" />
        </mxCell>
        <mxCell id="xQmTrEk7y5srBk64jgJA-60" value="+ getSearchResults(queryString: String): String[*]" style="text;align=left;verticalAlign=top;spacingLeft=4;spacingRight=4;overflow=hidden;rotatable=0;points=[[0,0.5],[1,0.5]];portConstraint=eastwest;rounded=0;shadow=0;html=0;" vertex="1" parent="xQmTrEk7y5srBk64jgJA-53">
          <mxGeometry y="72" width="280" height="22" as="geometry" />
        </mxCell>
      </root>
    </mxGraphModel>
  </diagram>
</mxfile>
